<?xml version="1.0" encoding="UTF-8" standalone="no"?>
<svg
   xmlns:dc="http://purl.org/dc/elements/1.1/"
   xmlns:cc="http://creativecommons.org/ns#"
   xmlns:rdf="http://www.w3.org/1999/02/22-rdf-syntax-ns#"
   xmlns:svg="http://www.w3.org/2000/svg"
   xmlns="http://www.w3.org/2000/svg"
   xmlns:sodipodi="http://sodipodi.sourceforge.net/DTD/sodipodi-0.dtd"
   xmlns:inkscape="http://www.inkscape.org/namespaces/inkscape"
   version="1.1"
   viewBox="0 0 1280 640"
   id="svg14906"
   sodipodi:docname="BatEst Icon PD edit.png"
   width="1280"
   height="640"
   inkscape:version="0.48.2 r9819">
  <metadata
     id="metadata40">
    <rdf:RDF>
      <cc:Work
         rdf:about="">
        <dc:format>image/svg+xml</dc:format>
        <dc:type
           rdf:resource="http://purl.org/dc/dcmitype/StillImage" />
        <dc:title></dc:title>
      </cc:Work>
    </rdf:RDF>
  </metadata>
  <defs
     id="defs14910" />
  <sodipodi:namedview
     id="namedview14908"
     pagecolor="#ffffff"
     bordercolor="#000000"
     borderopacity="0.25"
     inkscape:showpageshadow="2"
     inkscape:pageopacity="0.0"
     inkscape:pagecheckerboard="0"
     inkscape:deskcolor="#d1d1d1"
     showgrid="false"
     inkscape:zoom="0.74140394"
     inkscape:cx="560.40147"
     inkscape:cy="334.50222"
     inkscape:window-width="1536"
     inkscape:window-height="801"
     inkscape:window-x="-8"
     inkscape:window-y="-8"
     inkscape:window-maximized="1"
     inkscape:current-layer="svg14906"
     fit-margin-top="3.2"
     fit-margin-left="3.2"
     fit-margin-right="3.2"
     fit-margin-bottom="3.2" />
  <path
     style="fill:#011924;fill-opacity:1;stroke:#916f8a;stroke-width:0.71929497;stroke-linecap:round;stroke-linejoin:miter;stroke-miterlimit:4;stroke-opacity:1;stroke-dasharray:none;stroke-dashoffset:0"
     d="M 621.56589,639.38965 C 520.12673,632.9459 429.4528,580.50395 372.43619,495.30357 347.34563,457.81059 330.6714,413.67625 322.77757,363.86439 319.522,343.32072 319.56105,297.01509 322.85191,275.71864 339.53808,167.73708 403.49262,79.9844 499.95768,32.709892 620.01575,-26.126804 764.5407,-3.3063825 861.25127,89.757929 959.04544,183.86504 986.8779,327.1426 931.46666,451.21856 c -44.09636,98.7401 -138.59404,169.7348 -246.57831,185.25061 -15.6122,2.24324 -49.43028,3.80297 -63.32256,2.92048 l 0,0 z"
     id="path3019"
     inkscape:connector-curvature="0" />
  <path
     style="fill:#ffffff;fill-opacity:1"
     inkscape:connector-curvature="0"
     d="m 700.83379,102.0312 q 23.56203,0.1279 47.33659,-0.016 c 6.73862,-0.0319 14.94201,-0.33578 20.8075,2.31841 q 11.05333,4.97261 11.11284,17.30018 1.0561,190.07814 2.42509,380.1402 0.0637,10.32894 -6.76539,14.40616 -3.89053,2.33441 -14.23801,2.28644 -123.24648,-0.49566 -244.72446,-0.0958 c -4.1849,0.0161 -8.73073,0.28781 -12.46393,-1.26312 q -9.66354,-4.02926 -9.71919,-15.73324 -0.62308,-157.25251 -2.60309,-376.94241 c -0.16974,-19.52263 12.12002,-22.44862 29.5867,-22.1768 q 28.53975,0.43171 58.86846,-0.27182 1.82871,-0.032 1.83424,-1.80676 l 0.0899,-25.502584 a 2.3073961,2.2377902 5.6285671 0 1 2.2931,-2.206492 l 112.69874,0.03191 q 2.04307,0 2.05537,1.998638 l 0.19551,26.365978 q 0.007,1.1672 1.20997,1.1672 z m 54.55699,24.65513 a 0.74166301,0.71928973 5.6285716 0 0 -0.74588,-0.71952 H 518.17569 a 0.74166301,0.71928973 5.6285716 0 0 -0.737,0.71952 l 2.26061,366.82133 a 0.74166301,0.71928973 5.6285716 0 0 0.74588,0.71948 H 756.9144 a 0.74166301,0.71928973 5.6285716 0 0 0.73701,-0.71948 z"
     id="path13040-6" />
  <path
     sodipodi:type="arc"
     style="fill:#ffffff;fill-opacity:1;stroke:#011924;stroke-width:0.5;stroke-linecap:round;stroke-linejoin:miter;stroke-miterlimit:4;stroke-opacity:1;stroke-dasharray:none;stroke-dashoffset:0"
     id="path3206"
     sodipodi:cx="-201.2392"
     sodipodi:cy="230.84544"
     sodipodi:rx="13.352364"
     sodipodi:ry="8.583663"
     d="m -187.88683,230.84544 a 13.352364,8.583663 0 1 1 -5.8e-4,-0.0798"
     sodipodi:start="0"
     sodipodi:end="6.2738898"
     sodipodi:open="true"
     transform="matrix(0.82010351,0,0,1.2304308,723.4094,-238.75998)" />
  <path
     sodipodi:type="arc"
     style="fill:#ffffff;fill-opacity:1;stroke:#011924;stroke-width:0.5;stroke-linecap:round;stroke-linejoin:miter;stroke-miterlimit:4;stroke-opacity:1;stroke-dasharray:none;stroke-dashoffset:0"
     id="path3206-9"
     sodipodi:cx="-201.2392"
     sodipodi:cy="230.84544"
     sodipodi:rx="13.352364"
     sodipodi:ry="8.583663"
     d="m -187.88683,230.84544 a 13.352364,8.583663 0 1 1 -5.8e-4,-0.0798"
     sodipodi:start="0"
     sodipodi:end="6.2738898"
     sodipodi:open="true"
     transform="matrix(0.82010351,0,0,1.2304308,800.86672,-239.63291)" />
  <path
     sodipodi:type="arc"
     style="fill:#ffffff;fill-opacity:1;stroke:#011924;stroke-width:0.5;stroke-linecap:round;stroke-linejoin:miter;stroke-miterlimit:4;stroke-opacity:1;stroke-dasharray:none;stroke-dashoffset:0"
     id="path3206-2"
     sodipodi:cx="-201.2392"
     sodipodi:cy="230.84544"
     sodipodi:rx="13.352364"
     sodipodi:ry="8.583663"
     d="m -187.88683,230.84544 a 13.352364,8.583663 0 1 1 -5.8e-4,-0.0798"
     sodipodi:start="0"
     sodipodi:end="6.2738898"
     sodipodi:open="true"
     transform="matrix(0.82010351,0,0,1.2304308,887.72408,-238.1591)" />
  <path
     sodipodi:type="arc"
     style="fill:#ffffff;fill-opacity:1;stroke:#011924;stroke-width:0.5;stroke-linecap:round;stroke-linejoin:miter;stroke-miterlimit:4;stroke-opacity:1;stroke-dasharray:none;stroke-dashoffset:0"
     id="path3206-0"
     sodipodi:cx="-201.2392"
     sodipodi:cy="230.84544"
     sodipodi:rx="13.352364"
     sodipodi:ry="8.583663"
     d="m -187.88683,230.84544 a 13.352364,8.583663 0 1 1 -5.8e-4,-0.0798"
     sodipodi:start="0"
     sodipodi:end="6.2738898"
     sodipodi:open="true"
     transform="matrix(-0.84885741,0,0,-1.1887516,603.05066,346.81984)" />
  <path
     sodipodi:type="arc"
     style="fill:#ffffff;fill-opacity:1;stroke:#011924;stroke-width:0.5;stroke-linecap:round;stroke-linejoin:miter;stroke-miterlimit:4;stroke-opacity:1;stroke-dasharray:none;stroke-dashoffset:0"
     id="path3206-0-9"
     sodipodi:cx="-201.2392"
     sodipodi:cy="230.84544"
     sodipodi:rx="13.352364"
     sodipodi:ry="8.583663"
     d="m -187.88683,230.84544 a 13.352364,8.583663 0 1 1 -5.8e-4,-0.0798"
     sodipodi:start="0"
     sodipodi:end="6.2738898"
     sodipodi:open="true"
     transform="matrix(-0.84885741,0,0,1.1887516,331.67053,-201.5725)" />
  <path
     sodipodi:type="arc"
     style="fill:#ffffff;fill-opacity:1;stroke:#011924;stroke-width:0.5;stroke-linecap:round;stroke-linejoin:miter;stroke-miterlimit:4;stroke-opacity:1;stroke-dasharray:none;stroke-dashoffset:0"
     id="path3206-2-3-1"
     sodipodi:cx="-201.2392"
     sodipodi:cy="230.84544"
     sodipodi:rx="13.352364"
     sodipodi:ry="8.583663"
     d="m -187.88683,230.84544 a 13.352364,8.583663 0 1 1 -5.8e-4,-0.0798"
     sodipodi:start="0"
     sodipodi:end="6.2738898"
     sodipodi:open="true"
     transform="matrix(-0.84885741,0,0,1.2304308,272.17235,-157.53575)" />
  <path
     style="fill:#ffffff;fill-opacity:1"
     inkscape:connector-curvature="0"
     d="m 609.88409,242.8802 q -11.11881,-0.0527 -22.33874,0.006 c -3.18015,0.0123 -7.05232,0.13754 -9.8126,-0.95047 q -5.20173,-2.03868 -5.19395,-7.09269 0.0547,-77.92777 -0.0388,-155.848944 0,-4.234626 3.23457,-5.906198 1.84277,-0.957046 6.72573,-0.937379 58.16009,0.203207 115.48825,0.03925 c 1.97495,-0.0062 4.12097,-0.118061 5.87824,0.517861 q 4.54859,1.651894 4.54081,6.450267 -0.16326,64.470023 0.13233,154.537893 c 0.0232,8.00384 -5.78488,9.2034 -14.02681,9.09199 q -13.46705,-0.177 -27.78157,0.11141 -0.86308,0.0123 -0.87084,0.74072 l -0.11676,10.4555 A 1.0885582,0.91772229 0 0 1 664.61538,255 l -53.18383,-0.0123 q -0.96416,0 -0.96416,-0.81937 l -0.0155,-10.80946 q 0,-0.47857 -0.56761,-0.47857 z m -25.67441,-10.10805 a 0.34989373,0.29498219 0 0 0 0.34988,0.29498 h 111.59276 a 0.34989373,0.29498219 0 0 0 0.34993,-0.29498 V 82.383677 A 0.34989373,0.29498219 0 0 0 696.15232,82.0887 H 584.55956 a 0.34989373,0.29498219 0 0 0 -0.34988,0.294977 z"
     id="path13040-6-4" />
  <path
     style="fill:#011924;fill-opacity:1"
     inkscape:connector-curvature="0"
     d="m 693.76556,121.76994 q 20.71936,0.11609 41.62715,-0.0139 c 5.92605,-0.0291 13.14163,-0.30489 18.28526,2.10529 q 9.69318,4.51547 9.67873,15.7098 -0.10127,172.60452 0.0723,345.1945 0,9.37943 -6.02743,13.08183 -3.43394,2.11979 -12.53311,2.07626 -108.37849,-0.4501 -215.20661,-0.087 c -3.68024,0.0154 -7.67923,0.26135 -10.95376,-1.14701 q -8.47615,-3.65885 -8.46164,-14.28692 0.3043,-142.79656 -0.24632,-342.29068 c -0.0433,-17.72796 10.77988,-20.38498 26.1383,-20.13815 q 25.09519,0.39201 51.76957,-0.24683 1.60835,-0.0291 1.62282,-1.64068 l 0.21729,-23.15817 a 2.0284742,2.0326911 0 0 1 2.02849,-2.003654 l 99.10545,0.02911 q 1.79667,0 1.79667,1.814884 l 0.0291,23.94223 q 0,1.0599 1.05776,1.0599 z m 47.84297,22.38864 a 0.65200962,0.65336502 0 0 0 -0.65196,-0.65336 H 533.00896 a 0.65200962,0.65336502 0 0 0 -0.65204,0.65336 v 333.1 a 0.65200962,0.65336502 0 0 0 0.65204,0.65338 h 207.94761 a 0.65200962,0.65336502 0 0 0 0.65196,-0.65338 z"
     id="path13040-4" />
  <rect
     style="fill:#ffffff;fill-opacity:1;stroke:none"
     id="rect3046"
     width="200.88899"
     height="336.8754"
     x="536"
     y="141.41434" />
  <path
     style="fill:#1a5603"
     inkscape:connector-curvature="0"
     d="m 720.12101,172.50248 -0.0338,75.69329 a 0.83046545,0.78813665 0 0 1 -0.83046,0.78813 l -83.30079,-0.56295 a 0.83046545,0.78813665 0 0 1 -0.55929,-1.36717 l 83.31772,-75.11426 a 0.83046545,0.78813665 0 0 1 1.40671,0.56296 z"
     id="path13110-3" />
  <rect
     style="fill:#82a901;fill-opacity:1;stroke:none"
     id="rect3066-6-2-0"
     width="84.991501"
     height="88.0821"
     x="550.05243"
     y="265.98221" />
  <rect
     style="fill:#1a5603;fill-opacity:1;stroke:none"
     id="rect3066-6-0"
     width="84.991501"
     height="88.0821"
     x="635.04388"
     y="265.98221" />
  <rect
     style="fill:#82a901;fill-opacity:1;stroke:none"
     id="rect3066-6-2-0-8"
     width="84.991501"
     height="88.0821"
     x="550.05243"
     y="371.06259" />
  <rect
     style="fill:#1a5603;fill-opacity:1;stroke:none"
     id="rect3066-6-0-8"
     width="84.991501"
     height="88.0821"
     x="635.04388"
     y="371.06259" />
  <text
     xml:space="preserve"
     style="font-size:55.63080215px;font-style:normal;font-variant:normal;font-weight:normal;font-stretch:normal;line-height:125%;letter-spacing:0px;word-spacing:0px;writing-mode:lr-tb;fill:#000000;fill-opacity:1;stroke:none;font-family:Monospace;-inkscape-font-specification:Monospace"
     x="501.58362"
     y="587.82269"
     id="text3164"
     sodipodi:linespacing="125%"><tspan
       sodipodi:role="line"
       id="tspan3166"
       x="501.58362"
       y="587.82269"
       style="font-size:76px;font-weight:bold;fill:#ffffff;-inkscape-font-specification:Monospace Bold">BatEst</tspan></text>
  <path
     style="fill:#1a5603"
     inkscape:connector-curvature="0"
     d="m 611.87812,265.98223 61.42863,0.0351 a 0.63960908,0.86066386 0 0 1 0.63961,0.86067 l -0.45689,86.32987 a 0.63960908,0.86066386 0 0 1 -1.10954,0.57962 l -60.95866,-86.34746 a 0.63960908,0.86066386 0 0 1 0.45685,-1.45787 z"
     id="path13110-3-7" />
  <path
     sodipodi:type="arc"
     style="fill:#ffffff;fill-opacity:1;stroke:#011924;stroke-width:0.5;stroke-linecap:round;stroke-linejoin:miter;stroke-miterlimit:4;stroke-opacity:1;stroke-dasharray:none;stroke-dashoffset:0"
     id="path3206-9-8"
     sodipodi:cx="-201.2392"
     sodipodi:cy="230.84544"
     sodipodi:rx="13.352364"
     sodipodi:ry="8.583663"
     d="m -187.88683,230.84544 a 13.352364,8.583663 0 1 1 -5.8e-4,-0.0798"
     sodipodi:start="0"
     sodipodi:end="6.2738898"
     sodipodi:open="true"
     transform="matrix(-0.84885741,0,0,-1.2304308,648.06684,812.87986)" />
  <path
     sodipodi:type="arc"
     style="fill:#ffffff;fill-opacity:1;stroke:#011924;stroke-width:0.5;stroke-linecap:round;stroke-linejoin:miter;stroke-miterlimit:4;stroke-opacity:1;stroke-dasharray:none;stroke-dashoffset:0"
     id="path3206-2-3"
     sodipodi:cx="-201.2392"
     sodipodi:cy="230.84544"
     sodipodi:rx="13.352364"
     sodipodi:ry="8.583663"
     d="m -187.88683,230.84544 a 13.352364,8.583663 0 1 1 -5.8e-4,-0.0798"
     sodipodi:start="0"
     sodipodi:end="6.2738898"
     sodipodi:open="true"
     transform="matrix(-0.84885741,0,0,-1.2304308,665.75249,413.1901)" />
  <path
     sodipodi:type="arc"
     style="fill:#ffffff;fill-opacity:1;stroke:#011924;stroke-width:0.5;stroke-linecap:round;stroke-linejoin:miter;stroke-miterlimit:4;stroke-opacity:1;stroke-dasharray:none;stroke-dashoffset:0"
     id="path3206-9-8-5"
     sodipodi:cx="-201.2392"
     sodipodi:cy="230.84544"
     sodipodi:rx="13.352364"
     sodipodi:ry="8.583663"
     d="m -187.88683,230.84544 a 13.352364,8.583663 0 1 1 -5.8e-4,-0.0798"
     sodipodi:start="0"
     sodipodi:end="6.2738898"
     sodipodi:open="true"
     transform="matrix(-0.84885741,0,0,1.2304308,289.858,247.76332)" />
  <path
     sodipodi:type="arc"
     style="fill:#ffffff;fill-opacity:1;stroke:#011924;stroke-width:0.5;stroke-linecap:round;stroke-linejoin:miter;stroke-miterlimit:4;stroke-opacity:1;stroke-dasharray:none;stroke-dashoffset:0"
     id="path3206-20"
     sodipodi:cx="-201.2392"
     sodipodi:cy="230.84544"
     sodipodi:rx="13.352364"
     sodipodi:ry="8.583663"
     d="m -187.88683,230.84544 a 13.352364,8.583663 0 1 1 -5.8e-4,-0.0798"
     sodipodi:start="0"
     sodipodi:end="6.2738898"
     sodipodi:open="true"
     transform="matrix(0.82010351,0,0,1.2304308,583.72236,199.5639)" />
  <path
     sodipodi:type="arc"
     style="fill:#ffffff;fill-opacity:1;stroke:#011924;stroke-width:0.5;stroke-linecap:round;stroke-linejoin:miter;stroke-miterlimit:4;stroke-opacity:1;stroke-dasharray:none;stroke-dashoffset:0"
     id="path3206-27"
     sodipodi:cx="-201.2392"
     sodipodi:cy="230.84544"
     sodipodi:rx="13.352364"
     sodipodi:ry="8.583663"
     d="m -187.88683,230.84544 a 13.352364,8.583663 0 1 1 -5.8e-4,-0.0798"
     sodipodi:start="0"
     sodipodi:end="6.2738898"
     sodipodi:open="true"
     transform="matrix(0.82010351,0,0,1.2304308,533.75564,-39.337091)" />
  <path
     sodipodi:type="arc"
     style="fill:#ffffff;fill-opacity:1;stroke:#011924;stroke-width:0.5;stroke-linecap:round;stroke-linejoin:miter;stroke-miterlimit:4;stroke-opacity:1;stroke-dasharray:none;stroke-dashoffset:0"
     id="path3206-6"
     sodipodi:cx="-201.2392"
     sodipodi:cy="230.84544"
     sodipodi:rx="13.352364"
     sodipodi:ry="8.583663"
     d="m -187.88683,230.84544 a 13.352364,8.583663 0 1 1 -5.8e-4,-0.0798"
     sodipodi:start="0"
     sodipodi:end="6.2738898"
     sodipodi:open="true"
     transform="matrix(0.82010351,0,0,1.2304308,1027.7238,192.62375)" />
  <path
     sodipodi:type="arc"
     style="fill:#ffffff;fill-opacity:1;stroke:#011924;stroke-width:0.5;stroke-linecap:round;stroke-linejoin:miter;stroke-miterlimit:4;stroke-opacity:1;stroke-dasharray:none;stroke-dashoffset:0"
     id="path3206-61"
     sodipodi:cx="-201.2392"
     sodipodi:cy="230.84544"
     sodipodi:rx="13.352364"
     sodipodi:ry="8.583663"
     d="m -187.88683,230.84544 a 13.352364,8.583663 0 1 1 -5.8e-4,-0.0798"
     sodipodi:start="0"
     sodipodi:end="6.2738898"
     sodipodi:open="true"
     transform="matrix(0.82010351,0,0,1.2304308,1080.7812,-34.62969)" />
  <path
     sodipodi:type="arc"
     style="fill:#ffffff;fill-opacity:1;stroke:#011924;stroke-width:0.5;stroke-linecap:round;stroke-linejoin:miter;stroke-miterlimit:4;stroke-opacity:1;stroke-dasharray:none;stroke-dashoffset:0"
     id="path3206-20-5"
     sodipodi:cx="-201.2392"
     sodipodi:cy="230.84544"
     sodipodi:rx="13.352364"
     sodipodi:ry="8.583663"
     d="m -187.88683,230.84544 a 13.352364,8.583663 0 1 1 -5.8e-4,-0.0798"
     sodipodi:start="0"
     sodipodi:end="6.2738898"
     sodipodi:open="true"
     transform="matrix(0.82010351,0,0,1.2304308,535.08649,121.30875)" />
  <path
     style="fill:none;stroke:#ffffff;stroke-width:6;stroke-linecap:butt;stroke-linejoin:miter;stroke-miterlimit:4;stroke-opacity:1;stroke-dasharray:none"
     d="m 502.366,72.709354 -60.4264,56.004966 0,173.91015 19.1596,23.58104 0,198.96501"
     id="path3296-8"
     inkscape:connector-curvature="0" />
  <path
     style="fill:none;stroke:#ffffff;stroke-width:6;stroke-linecap:butt;stroke-linejoin:miter;stroke-miterlimit:4;stroke-opacity:1;stroke-dasharray:none"
     d="m 777.20563,75.356516 60.42641,56.004964 0,173.91016 -19.15961,23.58104 0,198.96501"
     id="path3296"
     inkscape:connector-curvature="0" />
  <path
     sodipodi:type="arc"
     style="fill:#82a901;fill-opacity:1;stroke:none"
     id="path4111"
     sodipodi:cx="511.2048"
     sodipodi:cy="1.4708997"
     sodipodi:rx="25.750988"
     sodipodi:ry="21.459156"
     d="m 536.95579,1.4708997 a 25.750988,21.459156 0 1 1 -0.001,-0.1994709"
     sodipodi:start="0"
     sodipodi:end="6.2738898"
     sodipodi:open="true"
     transform="matrix(0.90014022,0,0,1.0801683,377.40824,185.55948)" />
  <path
     sodipodi:type="arc"
     style="fill:#011924;fill-opacity:1;stroke:#ffffff;stroke-width:9.60293102;stroke-miterlimit:4;stroke-opacity:1;stroke-dasharray:none"
     id="path4111-5-9"
     sodipodi:cx="511.2048"
     sodipodi:cy="1.4708997"
     sodipodi:rx="25.750988"
     sodipodi:ry="21.459156"
     d="m 536.95579,1.4708997 a 25.750988,21.459156 0 1 1 -0.001,-0.1994709"
     sodipodi:start="0"
     sodipodi:end="6.2738898"
     sodipodi:open="true"
     transform="matrix(0.4406965,0,0,0.52883581,612.19657,186.59492)" />
  <path
     sodipodi:type="arc"
     style="fill:#82a901;fill-opacity:1;stroke:none"
     id="path4111-2"
     sodipodi:cx="511.2048"
     sodipodi:cy="1.4708997"
     sodipodi:rx="25.750988"
     sodipodi:ry="21.459156"
     d="m 536.95579,1.4708997 a 25.750988,21.459156 0 1 1 -0.001,-0.1994709"
     sodipodi:start="0"
     sodipodi:end="6.2738898"
     sodipodi:open="true"
     transform="matrix(0.90014022,0,0,1.0801683,-17.7466,241.35368)" />
  <path
     sodipodi:type="arc"
     style="fill:#011924;fill-opacity:1;stroke:#ffffff;stroke-width:9.60293102;stroke-miterlimit:4;stroke-opacity:1;stroke-dasharray:none"
     id="path4111-5-9-6"
     sodipodi:cx="511.2048"
     sodipodi:cy="1.4708997"
     sodipodi:rx="25.750988"
     sodipodi:ry="21.459156"
     d="m 536.95579,1.4708997 a 25.750988,21.459156 0 1 1 -0.001,-0.1994709"
     sodipodi:start="0"
     sodipodi:end="6.2738898"
     sodipodi:open="true"
     transform="matrix(0.4406965,0,0,0.52883581,217.04174,242.38911)" />
  <path
     style="fill:none;stroke:#ffffff;stroke-width:6;stroke-linecap:butt;stroke-linejoin:miter;stroke-miterlimit:4;stroke-opacity:1;stroke-dasharray:none"
     d="m 400.26272,177.6437 0,113.48374 19.15961,23.58104 0,159.172"
     id="path3296-8-0"
     inkscape:connector-curvature="0"
     sodipodi:nodetypes="cccc" />
  <path
     style="fill:none;stroke:#ffffff;stroke-width:6;stroke-linecap:butt;stroke-linejoin:miter;stroke-miterlimit:4;stroke-opacity:1;stroke-dasharray:none"
     d="m 881.10958,177.92962 0,113.48374 -19.15961,23.58104 0,159.17201"
     id="path3296-8-0-4"
     inkscape:connector-curvature="0"
     sodipodi:nodetypes="cccc" />
  <path
     style="fill:none;stroke:#ffffff;stroke-width:6;stroke-linecap:butt;stroke-linejoin:miter;stroke-miterlimit:4;stroke-opacity:1;stroke-dasharray:none"
     d="m 915.00731,247.19894 0,113.48374 -19.15961,23.58102 0,39.79301"
     id="path3296-8-0-2"
     inkscape:connector-curvature="0"
     sodipodi:nodetypes="cccc" />
  <path
     style="fill:none;stroke:#ffffff;stroke-width:6;stroke-linecap:butt;stroke-linejoin:miter;stroke-miterlimit:4;stroke-opacity:1;stroke-dasharray:none"
     d="m 369.45556,240.28084 0,162.11961"
     id="path3296-8-0-2-0"
     inkscape:connector-curvature="0"
     sodipodi:nodetypes="cc" />
  <path
     sodipodi:type="arc"
     style="fill:#82a901;fill-opacity:1;stroke:none"
     id="path4111-9"
     sodipodi:cx="511.2048"
     sodipodi:cy="1.4708997"
     sodipodi:rx="25.750988"
     sodipodi:ry="21.459156"
     d="m 536.95579,1.4708997 a 25.750988,21.459156 0 1 1 -0.001,-0.1994709"
     sodipodi:start="0"
     sodipodi:end="6.2738898"
     sodipodi:open="true"
     transform="matrix(0.90014022,0,0,1.0801683,-91.43734,349.51405)" />
  <path
     sodipodi:type="arc"
     style="fill:#011924;fill-opacity:1;stroke:#ffffff;stroke-width:9.60293102;stroke-miterlimit:4;stroke-opacity:1;stroke-dasharray:none"
     id="path4111-5-9-4"
     sodipodi:cx="511.2048"
     sodipodi:cy="1.4708997"
     sodipodi:rx="25.750988"
     sodipodi:ry="21.459156"
     d="m 536.95579,1.4708997 a 25.750988,21.459156 0 1 1 -0.001,-0.1994709"
     sodipodi:start="0"
     sodipodi:end="6.2738898"
     sodipodi:open="true"
     transform="matrix(0.4406965,0,0,0.52883581,143.351,350.54948)" />
  <path
     sodipodi:type="arc"
     style="fill:#82a901;fill-opacity:1;stroke:none"
     id="path4111-9-6"
     sodipodi:cx="511.2048"
     sodipodi:cy="1.4708997"
     sodipodi:rx="25.750988"
     sodipodi:ry="21.459156"
     d="m 536.95579,1.4708997 a 25.750988,21.459156 0 1 1 -0.001,-0.1994709"
     sodipodi:start="0"
     sodipodi:end="6.2738898"
     sodipodi:open="true"
     transform="matrix(0.90014022,0,0,1.0801683,454.25739,321.51156)" />
  <path
     sodipodi:type="arc"
     style="fill:#011924;fill-opacity:1;stroke:#ffffff;stroke-width:9.60293102;stroke-miterlimit:4;stroke-opacity:1;stroke-dasharray:none"
     id="path4111-5-9-4-8"
     sodipodi:cx="511.2048"
     sodipodi:cy="1.4708997"
     sodipodi:rx="25.750988"
     sodipodi:ry="21.459156"
     d="m 536.95579,1.4708997 a 25.750988,21.459156 0 1 1 -0.001,-0.1994709"
     sodipodi:start="0"
     sodipodi:end="6.2738898"
     sodipodi:open="true"
     transform="matrix(0.4406965,0,0,0.52883581,689.04572,322.54699)" />
  <path
     style="fill:none;stroke:#ffffff;stroke-width:6;stroke-linecap:butt;stroke-linejoin:miter;stroke-opacity:1;stroke-miterlimit:4;stroke-dasharray:none"
     d="m 551.87128,44.686338 179.77341,0 0,0"
     id="path3204"
     inkscape:connector-curvature="0" />
</svg>
